<?xml version="1.0" standalone="no"?>
<!DOCTYPE svg PUBLIC "-//W3C//DTD SVG 1.1//EN" "http://www.w3.org/Graphics/SVG/1.1/DTD/svg11.dtd" >
<!--
2013-9-30: Created.
-->
<svg>
<metadata>
Created by iconfont
</metadata>
<defs>

<font id="iconfont" horiz-adv-x="1024" >
  <font-face
    font-family="iconfont"
    font-weight="500"
    font-stretch="normal"
    units-per-em="1024"
    ascent="896"
    descent="-128"
  />
    <missing-glyph />
    
    <glyph glyph-name="nonghangzititubiao-" unicode="&#58903;" d="M512 887.466667A503.466667 503.466667 0 1 1 1015.466667 384 503.466667 503.466667 0 0 1 512 887.466667z m-43.4176-101.000534h87.4496c2.594133 0 1.399467-51.2 1.399467-57.7536v-151.688533c0-5.632 2.1504-16.7936 0-21.879467a20.7872 20.7872 0 0 0-3.106134-10.24c-4.334933-8.704-18.8416-7.031467-26.350933-7.031466h-44.544a17.066667 17.066667 0 0 0-16.042667 13.994666c-2.7648 27.7504-0.2048 57.002667-0.2048 84.923734v120.832c0 4.027733-1.160533 28.842667 1.399467 28.842666z m98.304-801.314133C337.92-45.841067 124.3136 127.6928 108.4416 358.229333c-13.277867 193.2288 117.6576 373.213867 305.493333 420.2496v-220.842666c0-25.6-1.262933-37.888 26.3168-37.956267 14.062933 0 28.433067 0.887467 42.461867 0 24.917333-1.536 20.48-22.4256 20.48-42.3936v-92.16c-8.362667 17.408-40.448 9.898667-55.671467 9.898667h-53.077333c-10.9568 1.4336-15.940267 7.168-17.066667 17.954133V676.078933c-112.64-51.677867-186.743467-167.867733-186.743466-291.7376 0-157.559467 119.978667-296.413867 276.48-317.6448v168.277334c0 7.816533 3.208533 15.7696-5.700267 15.7696h-42.1888c-13.243733 0-38.263467-4.983467-41.5744 13.448533-2.2528 10.24-0.238933 22.186667-0.238933 32.4608v95.095467c-0.4096-7.816533 3.037867-13.653333 10.752-15.872 20.48-4.676267 45.7728-0.546133 66.628266-0.443734 13.448533 0 44.373333 6.5536 47.991467-13.0048 2.7648-11.6736 0.341333-26.589867 0.341333-38.6048v-63.6928c0-7.168-0.785067-6.314667 3.9936-8.4992 3.413333-1.570133 10.513067-0.443733 14.2336-0.580266v80.9984c0 14.4384-5.393067 43.52 17.066667 43.52 21.777067 3.003733 46.114133 0 68.266667 0 14.506667 0 41.506133-4.949333 40.379733 17.271466 0.170667-28.125867 0-56.251733 0-84.411733 0-9.147733 0.989867-28.091733 0-39.901867-2.184533-30.5152-76.561067-13.994667-86.357333-17.749333-5.802667-2.218667-2.628267 1.365333-4.608-5.768533a50.7904 50.7904 0 0 1 0-11.502934V66.56c156.5696 21.1968 276.48 160.119467 276.48 317.678933 0 123.665067-73.4208 239.616-185.7536 291.7376v-230.468266c0-4.369067 0.238933-27.511467 0-32.119467-0.3072-8.6016-4.3008-16.418133-13.346134-18.261333-21.981867-4.3008-48.469333-0.341333-70.8608-0.341334-13.243733 0-34.474667 4.983467-41.608533-9.864533v81.3056c0 13.243733-7.202133 46.455467 10.478933 52.189867 16.861867 5.3248 75.298133-10.581333 78.506667 13.994666 5.358933 38.2976 0.341333 80.827733 0.512 119.466667 0.2048 42.052267 0.238933 84.104533 0.4096 126.293333 169.0624-42.8032 294.4-194.56 304.401067-368.64 12.458667-208.008533-141.755733-396.424533-348.433067-424.379733z"  horiz-adv-x="1024" />

    
    <glyph glyph-name="weixin" unicode="&#59012;" d="M0 384a512 512 0 1 1 1024 0A512 512 0 0 1 0 384zM831.886222 310.385778c0 90.567111-90.567111 164.352-192.284444 164.352-107.804444 0-192.625778-73.784889-192.625778-164.352 0-90.680889 84.821333-164.295111 192.568889-164.295111 22.528 0 45.283556 5.688889 67.925333 11.377777l62.122667-34.019555-17.009778 56.547555c45.454222 34.133333 79.303111 79.36 79.303111 130.389334z m-254.805333 28.330666a24.348444 24.348444 0 0 0-22.641778 22.698667c0 11.264 11.377778 22.641778 22.641778 22.641778 17.123556 0 28.387556-11.377778 28.387555-22.641778 0-11.434667-11.264-22.698667-28.387555-22.698667z m124.586667 0c-11.207111 0-22.471111 11.264-22.471112 22.698667 0 11.264 11.264 22.641778 22.471112 22.641778 16.952889 0 28.330667-11.377778 28.330666-22.641778 0-11.434667-11.377778-22.698667-28.330666-22.698667zM418.531556 644.551111c-124.472889 0-226.417778-84.821333-226.417778-192.568889 0-62.179556 33.905778-113.208889 90.624-152.860444l-22.698667-68.096 79.189333 39.708444c28.330667-5.632 51.029333-11.377778 79.303112-11.377778 7.111111 0 14.165333 0.341333 21.162666 0.910223a168.504889 168.504889 0 0 0-6.997333 47.388444c0 98.986667 84.935111 179.2 192.512 179.2 7.338667 0 14.620444-0.512 21.788444-1.308444C627.484444 576.853333 529.92 644.551111 418.531556 644.551111zM344.974222 491.690667c-16.952889 0-34.133333 11.377778-34.133333 28.330666 0 17.066667 17.180444 28.273778 34.133333 28.273778 17.009778 0 28.273778-11.207111 28.273778-28.273778 0-16.952889-11.264-28.330667-28.273778-28.330666z m158.492445 0c-16.952889 0-34.019556 11.377778-34.019556 28.330666 0 17.066667 17.066667 28.273778 34.019556 28.273778 17.066667 0 28.330667-11.207111 28.330666-28.273778 0-16.952889-11.264-28.330667-28.330666-28.330666z"  horiz-adv-x="1024" />

    
    <glyph glyph-name="xiaoyuhao-copy" unicode="&#58922;" d="M655.669 743.453l-335.38400001-335.789c-6.083-6.083-9.844-14.489-9.84399998-23.771s3.762-17.687 9.84399999-23.77100001l336.226-336.62899999c6.124-6.343 14.703-10.282 24.2-10.282 18.569 0 33.623 15.053 33.623 33.623 0 9.482-3.924 18.047-10.237 24.158l-336.235 336.671 0-47.542 335.384 335.822c6.32200001 6.122 10.248 14.687 10.248 24.167 0 18.569-15.053 33.623-33.623 33.623-9.49899999 0-18.077-3.938-24.191-10.272z"  horiz-adv-x="1024" />

    
    <glyph glyph-name="sousuo" unicode="&#59065;" d="M957.098799 2.49303 703.87554 255.719358c46.635133 60.162218 74.4005 135.684262 74.4005 217.690998 0 196.447161-165.213809 355.685885-361.686553 355.685885-196.421578 0-349.688287-159.239747-349.688287-355.685885 0-196.424648 159.218258-355.664396 355.689978-355.664396 82.001619 0 157.52264 27.758204 217.687928 74.383104L893.503389-61.096241 957.098799 2.49303zM416.589488 193.244468c-168.345126 0-286.095947 117.776404-286.095947 286.141996 0 168.346149 117.750821 286.11846 286.095947 286.11846 168.348196 0 286.139949-117.771287 286.139949-286.11846C702.729437 311.020872 584.936661 193.244468 416.589488 193.244468z"  horiz-adv-x="1024" />

    
    <glyph glyph-name="zhifushibai" unicode="&#58992;" d="M512 896a512 512 0 1 1 512-512A512 512 0 0 1 512 896z m0-204.8a61.94176 61.94176 0 0 0 62.59712-68.096l-25.6-307.3024a37.10976 37.10976 0 0 0-74.00448 0l-25.6 307.3024A61.62432 61.62432 0 0 0 512 691.2z m0-614.4a68.27008 68.27008 0 1 0 68.27008 68.27008A68.2496 68.2496 0 0 0 512 76.8z"  horiz-adv-x="1024" />

    
    <glyph glyph-name="wenhao" unicode="&#58944;" d="M763.229814 896c-283.032646 0-512-228.967354-512-512s228.967354-512 512-512c283.034236 0 512 228.967354 512 512-1.588472 283.032646-230.560596 512-512 512z m30.21118-812.521739h-90.633541v90.63354h90.633541v-90.63354z m106.532571 357.765565c-9.538783-17.493863-28.621118-38.161491-55.648994-65.194137-28.622708-27.032646-46.111801-47.700273-50.883577-58.832298-4.771776-11.128845-7.950311-30.21118-7.950311-60.42236l7.950311-23.850932h-90.633541l-1.590062 25.439404c1.590062 30.21118 6.357068 57.243826 14.310559 77.916224 9.540373 22.26087 28.619528 47.700273 57.240646 77.911453C799.801242 441.243826 815.701863 461.916224 822.063702 471.455006c4.765416 9.538783 7.94872 20.666037 7.94872 36.571429 0 22.254509-6.360248 39.749963-20.670807 52.467279-14.312149 12.720497-33.389714 20.670807-58.832298 20.670808-54.062112 0-73.144447-38.161491-77.913044-106.532572h-90.63354V484.173913c1.590062 31.804422 4.767006 55.653764 12.717317 74.731329 7.950311 19.083925 19.082335 36.571429 36.573018 52.47364 17.493863 15.900621 36.571429 27.032646 57.243826 33.392894 20.666037 6.357068 41.340025 11.128845 63.600895 11.128845 46.111801 0 85.861764-14.312149 116.077714-41.344795C898.385093 587.52795 914.285714 549.36646 914.285714 503.256248c0-23.850932-4.773366-44.523329-14.312149-62.012422z m0 0"  horiz-adv-x="1526" />

    
    <glyph glyph-name="caidanguanli" unicode="&#59036;" d="M1019.733333 121.6l-46.933333 32c-4.266667 3.2-7.466667 8.533333-6.4 14.933333 1.066667 4.266667 1.066667 8.533333 1.066667 13.866667 0 6.4 0 10.666667-1.066667 16s1.066667 9.6 5.333333 12.8l41.6 33.066667c4.266667 4.266667 4.266667 9.6 2.133334 13.866666l-43.733334 75.733334c-3.2 5.333333-10.666667 8.533333-16 7.466666L906.666667 320c-4.266667-2.133333-9.6-1.066667-13.866667 1.066667-8.533333 5.333333-17.066667 10.666667-26.666667 14.933333-4.266667 2.133333-7.466667 6.4-8.533333 10.666667l-8.533333 52.266666c2.133333 6.4-4.266667 11.733333-9.6 11.733334H746.666667c-4.266667 0-11.733333-4.266667-11.733334-9.6l-8.533333-53.333334c-1.066667-5.333333-4.266667-9.6-8.533333-10.666666-8.533333-4.266667-17.066667-9.6-25.6-16-4.266667-3.2-9.6-3.2-13.866667-1.066667L629.333333 340.266667c-7.466667 2.133333-11.733333 0-16-4.266667l-46.933333-81.066667c-2.133333-2.133333 0-9.6 4.266667-13.866666l42.666666-32c4.266667-3.2 6.4-8.533333 5.333334-13.866667-1.066667-4.266667-1.066667-8.533333-1.066667-13.866667 0-6.4 0-10.666667 1.066667-16s-1.066667-9.6-5.333334-12.8l-41.6-33.066666c-4.266667-4.266667-4.266667-9.6-2.133333-13.866667l43.733333-75.733333c3.2-5.333333 10.666667-8.533333 16-7.466667l51.2 20.266667c4.266667 2.133333 9.6 1.066667 13.866667-1.066667 8.533333-5.333333 17.066667-10.666667 26.666667-14.933333 4.266667-2.133333 7.466667-6.4 8.533333-10.666667l8.533333-52.266667c0-4.266667 4.266667-9.6 11.733334-9.6H842.666667c4.266667 0 11.733333 4.266667 11.733333 9.6l8.533333 52.266667c1.066667 4.266667 4.266667 8.533333 8.533334 10.666667 9.6 4.266667 18.133333 9.6 26.666666 14.933333 4.266667 3.2 9.6 3.2 13.866667 1.066667l51.2-20.266667c4.266667-2.133333 11.733333 0 13.866667 4.266667l46.933333 81.066666c1.066667 4.266667 1.066667 10.666667-4.266667 13.866667z m-227.2-21.333333c-44.8 0-82.133333 37.333333-82.133333 81.066666s37.333333 81.066667 82.133333 81.066667S874.666667 225.066667 874.666667 181.333333s-37.333333-81.066667-82.133334-81.066666z m-298.666666 82.133333c0 155.733333 126.933333 282.666667 282.666666 282.666667 6.4 0 12.8 0 19.2-1.066667 8.533333-1.066667 16 6.4 16 14.933333V747.733333c0 37.333333-29.866667 68.266667-68.266666 68.266667H68.266667C29.866667 814.933333 0 785.066667 0 747.733333v-740.266666c0-37.333333 16-54.4 54.4-54.4h538.666667c12.8 0-34.133333 49.066667-41.6 59.733333-35.2 46.933333-57.6 105.6-57.6 169.6zM107.733333 653.866667h593.066667v-54.4H107.733333v54.4z m0-215.466667h377.6V384H107.733333v54.4z m0-269.866667s1.066667-7.466667 0 0v54.4h323.2v-54.4H107.733333z"  horiz-adv-x="1024" />

    
    <glyph glyph-name="mendianshezhi-POSguanli" unicode="&#59011;" d="M647.343703 310.865186H222.810002c-39.484705-2.632314-73.558543 26.030657-76.337097 64.052966A65.661602 65.661602 0 0 0 146.399786 383.838771c-2.266715 38.022309 27.785533 70.77999 67.270238 72.973585 3.071033 0.219359 6.142065 0.219359 9.139978 0h432.723121c39.484705 2.193595 73.266064-26.834976 75.532778-64.857285a66.977759 66.977759 0 0 0 0-8.04318c-2.924793-41.239581-38.461028-73.119824-81.309244-73.046705h-2.412954zM215.717379 676.171829H443.120033c35.463115 2.632314 66.100321-25.884418 68.659515-63.614247a59.885136 59.885136 0 0 0 0-8.993739c2.120475-38.314788-25.226339-71.072469-61.055053-73.339184a61.128173 61.128173 0 0 0-7.604462 0H215.717379c-35.828714-2.632314-66.7584 26.103777-69.317593 64.345446a73.119824 73.119824 0 0 0 0 8.993738c2.924793 39.265346 32.538322 70.268151 69.317593 72.607986z m-69.317593 219.359473C69.47773 899.333533 3.889248 835.719286 0.160137 753.093884a236.908231 236.908231 0 0 1 0-14.404605v-490.487782c-3.655991-82.625402 55.717306-152.747313 132.785601-156.768904 4.460309-0.219359 8.993738-0.219359 13.454048 0h731.198244c77.068295-3.948471 142.583658 59.738897 146.239648 142.218058a159.766816 159.766816 0 0 1 0 14.550846V738.762398c3.729111 82.552282-55.571067 152.747313-132.712481 156.768904a129.787688 129.787688 0 0 1-13.527167 0h-731.198244z m657.78594-950.557717a69.025114 69.025114 0 0 0-72.973585-72.827345H292.273835a72.900465 72.900465 0 0 0 0 145.947169H731.212141a69.098234 69.098234 0 0 0 72.973585-73.119824z"  horiz-adv-x="1024" />

    
    <glyph glyph-name="zuocedianpuguanli" unicode="&#58927;" d="M812.5 329.9c-37.1 0-72.4 11.3-101.7 32.6-59.6-43-146.2-42.4-204.9 1.5-56.6-42.1-139.1-45.1-199-5-28.5-19-61.7-29.1-95.5-29.1-14.5 0-28.5 1.8-41.8 5.3v-229.8c0-49.2 40-89 89-89h506.5c49.2 0 89 39.7 89 89V334.9c-13.4-3.2-27.3-5-41.6-5zM699.9 120.2h-376v59.3h376v-59.3zM927 498.6c-2.7-60.8-53.1-109.4-114.5-109.4-30.5 0-59 11.6-81 33.2-5.6 5.6-13 8.6-20.8 8.6-7.4 0-15.1-3-20.8-8.6-21.6-21.6-50.4-33.2-80.7-33.2-31.1 0-60.5 12.5-82.4 35-11 11.6-31.4 11.6-42.4 0-21.9-22.5-51-35-82.1-35-27.6 0-54.6 10.4-75.9 29.1-11.3 10.1-28.2 10.1-39.4 0-21.3-18.7-48-29.1-75.6-29.1-61.7 0-111.8 48.6-114.5 109.4l70.6 188.9c12.8 34.1 55.7 64.1 92.2 64.1h504.1c36.5 0 79.8-29.9 92.5-64.1L927 498.6z"  horiz-adv-x="1024" />

    
    <glyph glyph-name="chenggong" unicode="&#58964;" d="M512-128a512 512 0 1 0 512 512 512 512 0 0 0-512-512z m214.3232 685.2096l-292.5056-274.176-126.1568 120.32a51.2 51.2 0 1 1-70.656-74.0864l161.28-153.6a51.2 51.2 0 0 1 70.3488-0.3072l327.68 307.2a51.2 51.2 0 1 1-69.9904 74.7008z"  horiz-adv-x="1024" />

    
    <glyph glyph-name="xiaoxi" unicode="&#58981;" d="M857.635 88.747l6.4-6.4L989.69-43.307H738.382l-220.267-0.213h-6.186C248.035-43.52 34.062 147.947 34.062 384S248.035 811.52 511.929 811.52 989.795 620.053 989.795 384c0.107-114.56-50.24-218.56-132.16-295.253z m-194.773 219.84c41.707 0 75.413 33.813 75.413 75.413s-33.813 75.413-75.413 75.413c-41.707 0-75.413-33.813-75.413-75.413s33.813-75.413 75.413-75.413z m-301.76 0c41.707 0 75.413 33.813 75.413 75.413s-33.813 75.413-75.413 75.413S285.689 425.6 285.689 384s33.706-75.413 75.413-75.413z"  horiz-adv-x="1024" />

    
    <glyph glyph-name="dianpuguanli" unicode="&#59067;" d="M682.032852 425.831738a199.651478 199.651478 0 0 1 281.92544-0.511927c36.931867 36.71247 57.994001 86.296243 58.652192 138.293387A436.74675 436.74675 0 0 1 852.065705 896H170.691044A436.74675 436.74675 0 0 1 0.073132 563.613198C0.073132 412.448507 88.92901 367.252678 198.847022 367.252678c53.020997 0 103.848022 21.208399 141.218683 58.652193a191.899443 191.899443 0 0 1 341.967147 0z m-234.60877-422.924725H255.744037v255.23211a63.844594 63.844594 0 0 1-127.835453 0v-382.775032h319.588631a63.844594 63.844594 0 1 1 0 127.542922z m556.683903 132.077132l-14.041423 5.119269a46.585345 46.585345 0 0 0-27.497786 26.10827 46.512213 46.512213 0 0 0 0 37.663191l6.36252 13.383231a28.009713 28.009713 0 0 1-5.704328 31.885731l-14.699615 14.626482a28.155978 28.155978 0 0 1-31.958863 5.850592l-13.456363-6.435652a46.73161 46.73161 0 0 0-37.663191 0 46.585345 46.585345 0 0 0-26.254535 27.424654l-5.119269 14.041423a28.082845 28.082845 0 0 1-24.865019 17.259248h-21.135267a28.082845 28.082845 0 0 1-26.181402-18.502499l-5.119269-14.041423a46.585345 46.585345 0 0 0-26.181403-27.424654 46.73161 46.73161 0 0 0-37.736323 0l-13.383231 6.36252a28.155978 28.155978 0 0 1-31.958863-5.77746l-14.699614-14.626482a28.009713 28.009713 0 0 1-5.777461-31.885731l6.36252-13.456363a46.512213 46.512213 0 0 0 0-37.590059 46.585345 46.585345 0 0 0-27.424654-26.181403l-14.114555-5.119268a28.082845 28.082845 0 0 1-18.502499-26.10827v-21.062134c0.073132-11.701186 7.459506-22.15912 18.502499-26.181403l14.114555-5.119269c12.43251-4.387945 22.45165-13.895158 27.424654-26.10827a46.512213 46.512213 0 0 0 0-37.663191l-6.36252-13.383231a28.009713 28.009713 0 0 1 5.777461-31.885731l14.626482-14.626482c8.410227-8.556492 21.208399-10.823597 32.031995-5.850592l13.383231 6.435652a46.73161 46.73161 0 0 0 37.736323 0 46.585345 46.585345 0 0 0 26.181403-27.424654l5.119269-14.041423c4.022283-10.969861 14.480217-18.429367 26.181402-18.502499h21.135267a28.082845 28.082845 0 0 1 26.181402 18.502499l5.119269 14.041423a47.243537 47.243537 0 0 0 26.181403 27.424654 46.073418 46.073418 0 0 0 37.736323 0l13.383231-6.36252a28.155978 28.155978 0 0 1 31.958863 5.704328l14.699615 14.626482a28.009713 28.009713 0 0 1 5.77746 31.958863l-6.435652 13.383231a46.512213 46.512213 0 0 0 0 37.663191 46.585345 46.585345 0 0 0 27.497786 26.10827l14.041423 5.119269a28.082845 28.082845 0 0 1 18.575632 26.181403v21.062134a28.082845 28.082845 0 0 1-19.818883 27.424653z m-122.716184-52.947864a83.736609 83.736609 0 0 0-163.962862 33.860305 83.736609 83.736609 0 1 0 163.962862-33.860305z"  horiz-adv-x="1024" />

    
    <glyph glyph-name="xiaoxi1" unicode="&#58888;" d="M782.5 884.5H240.9C114.4 884.5 11.7 786 11.7 665v-454.1c0-121 102.7-219.5 228.8-219.5h107.9l118.5-96.6 4.2-3.1c1.2-1 2.7-1.9 4-2.5 1.2-0.8 2.5-1.5 3.7-1.9 1.9-0.8 4.2-1.5 6.2-1.9 2.3-0.6 4.4-0.8 6.7-0.8 2.5 0 5 0.2 7.5 0.8l4.4 1.2c5.4 1.5 10 4.4 14.4 8.5l96.5 96.2h168.1c126.7 0 229.2 98.5 229.2 219.5V665c-0.1 121-103.2 219.5-229.3 219.5zM278 545.9c6 10.5 17.5 17 29.5 17H716c19 0 34-15.5 34-34 0-19-15.5-34-34-34H307.5c-12 0-23.5 6.5-29.5 17s-6 23.5 0 34z m504.7-200.5c-6-10.5-17.5-17-29.5-17h-483c-12 0-23.5 6.5-29.5 17s-6 23.5 0 34 17.5 17 29.5 17h483c12 0 23.5-6.5 29.5-17s6-23.5 0-34z"  horiz-adv-x="1024" />

    
    <glyph glyph-name="xiaoxi2" unicode="&#59063;" d="M800 793.6H281.6c-96 0-179.2-83.2-179.2-179.2V256c0-96 83.2-179.2 179.2-179.2h19.2s0-6.4 6.4-6.4l70.4-76.8c12.8-12.8 32-12.8 38.4 0l64 70.4 6.4 6.4H800c96 0 179.2 83.2 179.2 179.2V614.4c0 96-83.2 179.2-179.2 179.2zM294.4 364.8c-38.4 0-64 32-64 70.4 0 38.4 32 70.4 70.4 70.4 38.4 0 70.4-32 70.4-70.4-6.4-38.4-38.4-70.4-76.8-70.4z m243.2 0c-38.4 0-70.4 32-70.4 70.4 0 38.4 32 70.4 70.4 70.4 38.4 0 70.4-32 70.4-70.4 0-38.4-32-70.4-70.4-70.4z m249.6 0c-38.4 0-70.4 32-70.4 70.4 0 38.4 32 70.4 70.4 70.4 38.4 0 70.4-32 70.4-70.4-6.4-38.4-38.4-70.4-70.4-70.4z"  horiz-adv-x="1024" />

    
    <glyph glyph-name="shezhi" unicode="&#58892;" d="M891.392 384c0 39.762 24.146 74.721 61.507 89.062l19.128 7.342-5.059 19.85a466.831 466.831 0 0 1-50.995 123.219l-10.455 17.612-18.714-8.32a95.933 95.933 0 0 0-39.219-8.325 94.326 94.326 0 0 0-67.24 27.904c-28.12 28.12-35.769 69.899-19.482 106.435l8.356 18.75-17.664 10.454a469.356 469.356 0 0 1-123.29 50.985l-19.814 5.049-7.363-19.077c-14.433-37.392-49.403-61.553-89.078-61.553-39.757 0-74.716 24.146-89.062 61.517l-7.342 19.118-19.85-5.054a466.586 466.586 0 0 1-123.218-51l-17.613-10.455 8.32-18.714c16.266-36.567 8.617-78.356-19.477-106.455-17.945-17.95-41.866-27.837-67.348-27.837-13.589 0-26.757 2.78-39.132 8.269l-18.668 8.279-10.46-17.547a464.138 464.138 0 0 1-51.113-123.253l-5.043-19.815 19.077-7.362c37.376-14.434 61.532-49.398 61.532-89.078 0-39.757-24.146-74.716-61.517-89.068l-19.123-7.347 5.054-19.85a466.995 466.995 0 0 1 50.995-123.213l10.455-17.618 18.719 8.33a95.877 95.877 0 0 0 39.214 8.326c25.41 0 49.28-9.902 67.235-27.9 28.125-28.123 35.769-69.903 19.487-106.439l-8.356-18.75 17.664-10.454a469.028 469.028 0 0 1 123.29-50.98l19.814-5.049 7.363 19.078c14.449 37.386 49.413 61.542 89.093 61.542 39.762 0 74.721-24.146 89.068-61.512l7.347-19.123 19.85 5.059a467.174 467.174 0 0 1 123.218 50.99l17.618 10.46-8.33 18.719c-16.267 36.567-8.628 78.351 19.476 106.455 17.946 17.95 41.861 27.837 67.338 27.837 13.589 0 26.763-2.785 39.138-8.269l18.672-8.284 10.455 17.552a464.256 464.256 0 0 1 51.113 123.248l5.049 19.85-19.119 7.348c-37.365 14.34-61.501 49.305-61.501 89.062z m-5.857-199.542a142.013 142.013 0 0 1-37.95 5.115c-37.796 0-73.282-14.679-99.932-41.334-36.66-36.67-49.879-88.975-36.162-137.871a421.565 421.565 0 0 0-76.39-31.61c-24.874 44.287-71.225 71.93-123.101 71.93-51.784 0-98.13-27.648-123.07-71.936a422.543 422.543 0 0 0-76.559 31.662c13.317 48.517-0.066 101.765-36.111 137.805-26.64 26.71-62.096 41.42-99.84 41.42-12.98 0-25.708-1.725-38.037-5.15a421.023 421.023 0 0 0-31.626 76.41c44.288 24.874 71.936 71.225 71.936 123.101 0 51.789-27.648 98.135-71.936 123.07a417.91 417.91 0 0 0 31.703 76.467c12.293-3.4 24.996-5.115 37.95-5.115 37.79 0 73.282 14.679 99.932 41.334 36.664 36.669 49.889 88.97 36.173 137.87a420.639 420.639 0 0 0 76.385 31.612c24.873-44.288 71.224-71.936 123.095-71.936 51.789 0 98.13 27.643 123.07 71.94a422.932 422.932 0 0 0 76.559-31.666c-13.323-48.512 0.066-101.76 36.106-137.805 26.644-26.711 62.106-41.42 99.845-41.42a141.773 141.773 0 0 1 38.042 5.15 421.345 421.345 0 0 0 31.62-76.411C872.95 482.227 845.313 435.88 845.313 384c0-51.876 27.638-98.227 71.926-123.1a418.627 418.627 0 0 0-31.703-76.442zM512 525.819c-78.198 0-141.819-63.621-141.819-141.819 0-78.203 63.621-141.824 141.819-141.824 78.203 0 141.824 63.621 141.824 141.824 0 78.198-63.621 141.819-141.824 141.819z m0-237.563c-52.792 0-95.739 42.952-95.739 95.744s42.952 95.739 95.739 95.739c52.797 0 95.744-42.952 95.744-95.739 0-52.797-42.947-95.744-95.744-95.744z"  horiz-adv-x="1024" />

    
    <glyph glyph-name="xiaoxi3" unicode="&#58883;" d="M632.493175-41.629919H173.943303a174.122494 174.122494 0 0 0-173.943303 173.943303V427.927404c0 215.720414 175.556022 391.276436 391.302035 391.276436h241.344733c215.746013 0 391.302035-175.556022 391.302035-391.276436v-78.306485c-0.153592-215.720414-175.556022-391.250837-391.455628-391.250838z m-235.329033 765.376132c-164.164592 0-297.841108-133.548523-297.841108-297.738713v-281.048348a91.259437 91.259437 0 0 1 91.105845-91.157042h436.202189c164.164592 0 297.892305 133.59972 297.892306 297.738713v74.466677c0 164.19019-133.59972 297.738713-297.764312 297.738713h-229.59492zM392.274786 280.888356a51.60702 51.60702 0 0 0-51.632618 51.658217V496.301585a51.60702 51.60702 0 1 0 103.265237 0v-163.857407a51.60702 51.60702 0 0 0-51.632619-51.555822z m222.222489-74.364282a50.173491 50.173491 0 0 0-50.19909 50.19909v241.39593a50.173491 50.173491 0 0 0 50.19909 50.173491c27.749013 0 50.19909-22.424479 50.19909-50.173491v-241.39593a50.122294 50.122294 0 0 0-50.19909-50.19909z"  horiz-adv-x="1024" />

    
    <glyph glyph-name="dianhua1" unicode="&#59287;" d="M371.510163 62.672266l0-1.209474c-6.551319 0-11.355619-0.503948-14.177726-0.503948l-3.326054 0c-69.813539 0-126.05409 55.837393-128.002688 125.550143-1.075088 34.23484 11.288426 67.360994 34.738787 92.256005 23.450361 24.895011 55.165463 39.475895 89.400302 40.450193 0.335965 0 3.762809 0.201579 4.065177 0.201579 26.810012 0 52.511339-8.399126 74.61784-24.491853 31.009575-10.952461 62.355115 4.367546 92.961532 45.422476 30.472031 40.752562 36.888964 73.0724 19.049219 96.018814-6.34974 4.569125-12.464304 10.011759-18.511675 16.462288-1.075088 1.041492-2.049387 2.150176-2.990089 3.326054-20.023518 22.610449-31.513523 51.234672-32.420628 80.732404-1.948597 70.754242 53.821603 129.884092 124.273476 131.866286 0.335965 0 3.628423 0.067193 3.930791 0.067193 59.264237 0 111.674786-41.995632 124.575844-99.916009 10.414917-32.151856 37.02335-159.51621-90.945742-330.589619C530.354443 79.772888 415.454393 62.672266 371.510163 62.672266L371.510163 62.672266zM367.377793 127.278347c19.116412-0.436755 119.569965 2.250966 229.531329 149.672434 112.313119 150.176382 86.746178 255.501428 80.463632 275.121787-7.156056 31.412733-33.058962 52.20897-62.388712 52.20897-37.02335-1.041492-64.639677-30.404838-63.698975-65.546783 0.571141-18.646061 9.407022-32.252646 16.697463-40.315807 0.235176-0.268772 0.470351-0.537544 0.67193-0.806316 4.065177-4.401142 7.861582-7.6936 11.657988-10.146145 2.385352-1.579036 4.602721-3.46044 6.484126-5.610616 19.788342-22.30808 58.088359-84.528809-13.405006-180.110868-46.161599-61.783974-93.499076-74.718629-125.046195-74.752226-16.227112 0-32.353435 3.326054-47.908618 9.81018-2.68772 1.108685-5.241055 2.620527-7.525617 4.434739-8.029565 6.316143-21.266588 13.875357-38.736771 13.875357-19.150008-0.537544-34.839577-7.59281-46.430371-19.889132-11.624391-12.363514-17.738955-28.523434-17.235008-45.489669 0.974299-34.671594 28.892995-61.750378 63.497396-61.750378 0.167983 0 0.201579-0.033597 0.067193-0.067193 1.209474 0.201579 2.519738 0.369562 3.292458 0.436755C360.759281 128.319839 364.152528 128.051067 367.377793 127.278347L367.377793 127.278347zM515.706367-71.478582c-60.708886 0-119.603561 11.859567-175.071393 35.175542-16.428691 6.954477-24.122291 25.835713-17.201411 42.264405 6.92088 16.462288 25.835713 24.088695 42.264405 17.235008 47.471863-19.956325 97.933815-30.136066 150.008399-30.136066 213.539392 0 387.233328 173.693936 387.233328 387.233328 0 213.505795-173.693936 387.233328-387.233328 387.233328S128.473039 593.799429 128.473039 380.260037c0-73.005207 20.426676-144.095414 59.062657-205.610616 9.440618-15.118428 4.90509-35.007559-10.179741-44.481774-15.084831-9.474215-35.007559-4.938686-44.481774 10.179741-45.153704 71.862926-68.973627 154.812699-68.973627 239.912649 0 249.084495 202.654124 451.772216 451.772216 451.772216s451.772216-202.654124 451.772216-451.772216C967.444986 131.175542 764.790862-71.478582 515.706367-71.478582L515.706367-71.478582z"  horiz-adv-x="1024" />

    
    <glyph glyph-name="dianhua2" unicode="&#59113;" d="M408.064 278.464c80-79.488 172.608-155.648 208.96-118.784 52.032 52.48 84.096 98.24 199.552 5.952 115.52-92.352 27.328-154.496-23.104-205.504-58.176-58.688-276.096-4.032-492.096 210.688C85.44 385.664 29.312 603.648 87.488 662.4c50.496 50.944 111.808 139.84 204.8 24.704 93.056-115.072 47.68-147.52-4.352-200.064-36.416-36.736 40.128-128.96 120.128-208.576z m116.032 379.776s-24.128 3.776-41.024-13.248A47.168 47.168 0 0 1 483.2 579.2c10.816-10.88 26.112-13.184 26.112-13.184 29.824-5.568 74.688-15.104 122.432-62.912s57.28-92.864 62.72-122.688c0 0 2.368-15.36 13.184-26.112a46.848 46.848 0 0 1 65.664-0.192c16.896 16.96 13.184 41.152 13.184 41.152a318.208 318.208 0 0 1-262.4 262.976z m226.432-36.16c87.616-87.68 124.928-187.264 112.768-267.968 0 0-4.16-25.6 12.352-42.304a46.848 46.848 0 0 1 66.048-0.192c11.264 11.328 13.696 29.76 13.696 29.76 10.048 69.696-2.56 209.984-138.944 346.688S540.032 837.376 470.592 827.328c0 0-18.368-2.432-29.568-13.696a47.04 47.04 0 0 1 0.128-66.176c16.64-16.704 42.048-12.416 42.048-12.416 80.448 12.224 179.712-25.216 267.328-112.96z"  horiz-adv-x="1024" />

    
    <glyph glyph-name="guanbi" unicode="&#58901;" d="M512-128C229.171-128 0 101.171 0 384S229.171 896 512 896s512-229.171 512-512-229.171-512-512-512z m0 975.228C256.82 847.228 48.772 639.181 48.772 384S256.819-79.228 512-79.228c255.18 0 463.228 208.047 463.228 463.228S767.181 847.228 512 847.228zM549.39 384l198.306 198.305c9.742 9.743 9.742 26.01 0 37.39l-1.639 1.61a25.512 25.512 0 0 1-35.752 0L512 421.39 313.695 619.696a25.512 25.512 0 0 1-35.752 0l-1.639-1.639c-9.742-9.742-9.742-26.01 0-37.39L474.61 384 276.304 185.695c-9.742-9.743-9.742-26.01 0-37.39l1.639-1.639a25.512 25.512 0 0 1 35.752 0L512 346.58l198.305-198.305a25.512 25.512 0 0 1 35.752 0l1.639 1.639c9.742 9.742 9.742 26.01 0 37.39L549.39 384z"  horiz-adv-x="1024" />

    
    <glyph glyph-name="delete" unicode="&#58939;" d="M393.846154 817.230769h236.307692c23.630769 0 39.384615 15.753846 39.384616 39.384616s-15.753846 39.384615-39.384616 39.384615H393.846154c-23.630769 0-39.384615-15.753846-39.384616-39.384615s15.753846-39.384615 39.384616-39.384616zM945.230769 738.461538H78.769231c-23.630769 0-39.384615-15.753846-39.384616-39.384615s15.753846-39.384615 39.384616-39.384615h866.461538c23.630769 0 39.384615 15.753846 39.384616 39.384615s-15.753846 39.384615-39.384616 39.384615zM433.230769 108.307692v354.461539c0 23.630769-15.753846 39.384615-39.384615 39.384615s-39.384615-15.753846-39.384616-39.384615v-354.461539c0-23.630769 15.753846-39.384615 39.384616-39.384615s39.384615 15.753846 39.384615 39.384615z m-39.384615 374.153846v-19.692307 19.692307zM669.538462 108.307692v354.461539c0 23.630769-15.753846 39.384615-39.384616 39.384615s-39.384615-15.753846-39.384615-39.384615v-354.461539c0-23.630769 15.753846-39.384615 39.384615-39.384615s39.384615 15.753846 39.384616 39.384615z m-39.384616 374.153846v-19.692307 19.692307zM874.338462 580.923077c-23.630769 0-39.384615-15.753846-39.384616-39.384615v-551.384616c0-23.630769-19.692308-39.384615-39.384615-39.384615H236.307692c-23.630769 0-39.384615 19.692308-39.384615 39.384615V541.538462c0 23.630769-15.753846 39.384615-39.384615 39.384615s-39.384615-19.692308-39.384616-39.384615v-551.384616c0-66.953846 55.138462-118.153846 118.153846-118.153846h559.261539c66.953846 0 118.153846 55.138462 118.153846 118.153846V541.538462c0 19.692308-15.753846 39.384615-39.384615 39.384615z"  horiz-adv-x="1024" />

    
    <glyph glyph-name="guanzhu" unicode="&#59034;" d="M1081.885921 517.455836a109.586727 109.586727 0 0 1-88.693258 70.615447l-243.330527 35.035756-105.619207 212.262291C625.973141 872.164873 586.585912 895.937993 543.903082 895.937993c-42.586842 0-81.942075-23.773121-100.275855-60.568663l-105.683199-212.198299-243.202543-35.067752a109.170777 109.170777 0 0 1-88.853238-70.935408 102.995525 102.995525 0 0 1 26.268818-108.946805l178.794344-172.843065-41.466977-239.427c-6.975155-40.12314 11.166647-81.23816 46.330388-104.819304a116.209924 116.209924 0 0 1 116.465894-6.015272L543.935078-4.496945l211.814345-110.482618c16.35002-8.446977 34.555815-12.894438 53.017578-12.926434h0.031996c22.653256-0.031996 44.794574 6.655194 63.5763 19.133682 34.971764 23.357171 53.017578 64.440195 46.042423 104.627328l-41.434981 239.522988 178.762348 172.843065a103.251494 103.251494 0 0 1 26.140834 109.23477z m-491.716443 33.627927c0-15.486124-12.79845-28.060601-28.540543-28.060602h-0.031996c-33.595931 0-59.864749-9.182888-78.070544-27.356686-31.484187-31.388198-31.676163-80.950195-31.644167-83.093936a28.380563 28.380563 0 0 0-28.092598-28.540543h-0.543934a28.476551 28.476551 0 0 0-28.412559 27.452675c0 3.007636-1.279845 74.007036 47.674226 123.217076 29.372442 29.500427 69.43159 44.442617 119.089576 44.442617 15.774089 0 28.572539-12.542481 28.572539-28.028605v-0.031996z"  horiz-adv-x="1087" />

    
    <glyph glyph-name="gouwuche" unicode="&#58881;" d="M347.136 112.63999999999999q19.456 0 36.864-7.168t30.72-19.968 20.48-30.208 7.168-36.864-7.168-36.864-20.48-30.208-30.72-20.48-36.864-7.68q-20.48 0-37.376 7.68t-30.208 20.48-20.48 30.208-7.168 36.864 7.168 36.864 20.48 30.208 30.208 19.968 37.376 7.168zM773.12 110.59199999999998q19.456 0 37.376-7.168t30.72-19.968 20.48-30.208 7.68-36.864-7.68-36.864-20.48-30.208-30.72-20.48-37.376-7.68-36.864 7.68-30.208 20.48-20.48 30.208-7.68 36.864 7.68 36.864 20.48 30.208 30.208 19.968 36.864 7.168zM945.152 692.2239999999999q28.672 0 44.544-7.68t22.528-18.944 6.144-24.064-3.584-22.016-12.8-37.888-22.016-62.976-24.064-68.096-17.92-53.248q-13.312-40.96-33.792-56.832t-50.176-15.872l-34.816 0-66.56 0-87.04 0-95.232 0-253.952 0 15.36-92.16 516.096 0q49.152 0 49.152-41.984 0-20.48-9.728-35.328t-38.4-14.848l-49.152 0-95.232 0-117.76 0-119.808 0-98.304 0-56.32 0q-20.48 0-34.304 9.216t-23.04 24.064-14.848 32.256-8.704 32.768q-1.024 6.144-5.632 29.696t-11.264 58.88-14.848 78.848-16.384 87.552q-19.456 103.424-44.032 230.4l-76.8 0q-15.36 0-25.6 7.68t-16.896 18.432-9.216 23.04-2.56 22.528q0 20.48 13.824 33.792t37.376 13.312l22.528 0 20.48 0 25.6 0 34.816 0q20.48 0 32.768-6.144t19.456-15.36 10.24-19.456 5.12-17.408q2.048-8.192 4.096-23.04t4.096-30.208q3.072-18.432 6.144-38.912l700.416 0z"  horiz-adv-x="1024" />

    
    <glyph glyph-name="dianhua" unicode="&#59084;" d="M614.22 196.066c1.746 1.084 20.9 13.07 26.503 16.444 10.36 6.265 18.914 10.963 27.467 14.818 60.115 27.347 113.122 8.011 183.236-73.909 43.37-50.718 56.2-95.714 39.454-135.77-12.469-29.937-36.503-50.598-79.27-76.137-2.77-1.627-27.407-15.963-33.731-19.878-99.57-61.44-327.8 79.21-491.942 319.548C121.374 482.123 78.787 739.027 179.682 801.37l13.312 8.433L207.45 819.2c51.02 33.009 83.667 46.2 122.398 39.635 38.672-6.626 71.56-35.238 99.389-87.341 58.669-110.23 45.718-162.515-29.757-210.04-5.42-3.494-24.696-15.12-26.503-16.264-18.492-11.445 12.83-88.125 85.655-194.741C532.36 242.628 593.98 183.657 614.159 196.066z"  horiz-adv-x="1024" />

    
    <glyph glyph-name="bianji" unicode="&#59311;" d="M636.16 703.488c51.8656 51.8656 142.2336 51.8656 194.048 0 25.9072-25.856 40.192-60.3136 40.192-96.9728s-14.2848-71.168-40.192-97.024l-400.384-400.384a34.9696 34.9696 0 0 0-13.1584-8.1408c-0.3072-0.1024-0.512-0.4096-0.8192-0.512l-215.04-71.68a35.7376 35.7376 0 0 0-45.3632 45.3632l71.68 215.04c0.1024 0.3072 0.4096 0.512 0.512 0.8192a34.9696 34.9696 0 0 0 8.192 13.1584zM870.4 109.9776v-67.4816h-337.3056v67.4816H870.4zM276.7872 211.456l-30.6688-92.0064 92.0576 30.6688-61.3888 61.3376zM619.52 585.5232l-307.712-307.712 92.672-92.672 307.712 307.712-92.672 92.672z m160 67.328c-24.7808 24.7808-67.8912 24.7808-92.672 0l-16.64-16.64 92.672-92.672 16.64 16.64c12.3904 12.3904 19.2 28.8256 19.2 46.336 0 17.4592-6.8096 33.9456-19.2 46.336z"  horiz-adv-x="1024" />

    
    <glyph glyph-name="time" unicode="&#58958;" d="M829.859 701.969c-84.916 84.873-197.818 131.648-317.948 131.648-120.071 0-233-46.775-317.887-131.664-84.946-84.916-131.692-197.846-131.692-317.947-0.030-120.129 46.688-233.015 131.634-318.019 84.887-84.83 197.817-131.604 317.888-131.604 120.131 0 233.060 46.835 318.007 131.721 175.276 175.278 175.334 460.514-0.001 635.865v0 0zM788.438 107.553c-73.91-73.88-172.087-114.596-276.586-114.596-104.441 0-202.646 40.716-276.469 114.48-73.852 73.882-114.48 172.071-114.48 276.571 0 104.47 40.688 202.69 114.54 276.528 73.852 73.822 172.028 114.48 276.468 114.48 104.471 0 202.677-40.658 276.528-114.496 152.447-152.476 152.447-400.566-0-552.968v0 0zM706.215 273.816l-155.431 89.877 0 245.12c0 20.68-16.773 37.467-37.468 37.467-20.664 0-37.466-16.787-37.466-37.467v-262.272c0-13.905 17.269-25.555 28.51-31.995 3.102-4.683 11.65-8.928 16.861-11.912l154.553-93.685c17.914-10.333 37.351-4.185 47.653 13.699 10.363 17.915 0.732 40.822-17.212 51.168v0 0zM706.215 273.816z"  horiz-adv-x="1024" />

    
    <glyph glyph-name="didian" unicode="&#58890;" d="M512 896C276.8 896 84.8 704 84.8 468.8c0-96 33.6-190.4 92.8-265.6v-1.6l273.6-302.4c16-17.6 36.8-27.2 60.8-27.2 22.4 0 44.8 9.6 60.8 27.2l268.8 296 1.6 1.6c62.4 76.8 97.6 172.8 97.6 272C939.2 704 747.2 896 512 896z m286.4-659.2s0-1.6 0 0l-1.6-1.6L528-62.4c-4.8-4.8-9.6-8-16-8s-12.8 3.2-16 8L222.4 240c-51.2 65.6-80 144-80 228.8 0 203.2 164.8 368 368 368s368-164.8 368-368c1.6-84.8-27.2-168-80-232zM512 672c-112 0-204.8-91.2-204.8-204.8 0-112 91.2-204.8 204.8-204.8 112 0 204.8 91.2 204.8 204.8C716.8 580.8 624 672 512 672z m0-348.8c-80 0-145.6 65.6-145.6 145.6S432 614.4 512 614.4s145.6-65.6 145.6-145.6S592 323.2 512 323.2z"  horiz-adv-x="1024" />

    
    <glyph glyph-name="dingweiweizhi" unicode="&#58880;" d="M512 805.875C320.12103271 805.875 164.57357788 649.43353271 164.57357788 456.36392212c0-96.48495484 38.91137695-183.83779907 101.74603272-247.11904907L512-37.875l245.67956542 247.11987305a349.4616394 349.4616394 0 0 1 101.7468567 247.11904907C859.42642212 649.43353271 703.87814331 805.875 512 805.875z m0-504.76107788a154.85284424 154.85284424 0 0 0-154.45651245 155.34970093A154.80340576 154.80340576 0 0 0 512 611.71362305a154.85284424 154.85284424 0 0 0 154.45568848-155.34970093A154.80340576 154.80340576 0 0 0 512 301.06448364000005z"  horiz-adv-x="1024" />

    
    <glyph glyph-name="dingwei" unicode="&#58941;" d="M0 512l1024 384-384-1024-64 576-576 64z m0 0"  horiz-adv-x="1024" />

    
    <glyph glyph-name="wode" unicode="&#58960;" d="M512 832h248.9v-248.9c0-137.5-111.4-248.9-248.9-248.9S263.1 445.6 263.1 583.1 374.5 832 512 832zM288 284.4h448c96.2 0 174.2-78 174.2-174.2v-24.9c0-82.5-66.9-149.3-149.3-149.3H263.1c-82.5 0-149.3 66.9-149.3 149.3v24.9c-0.1 96.2 77.9 174.2 174.2 174.2z"  horiz-adv-x="1024" />

    
    <glyph glyph-name="dingdan1" unicode="&#58925;" d="M825.7 750H691.3c-6.3 27.5-31.7 48.7-61.4 48.7h-66.6c-8.5 21.2-28.6 34.9-51.8 34.9-23.3 0-43.4-13.8-51.8-34.9H392c-29.6 0-55-21.2-61.4-48.7H196.2c-34.9 0-61.4-28.6-61.4-63.5v-683.4c0-34.9 27.5-63.5 61.4-63.5h628.4c34.9 0 64.5 28.6 64.5 63.5V686.5c1.1 34.9-28.5 63.5-63.4 63.5z m-313.2-30.7c28.6 0 50.8-23.3 50.8-50.8 0-28.6-23.3-50.8-50.8-50.8-28.6 0-50.8 23.3-50.8 50.8s22.3 50.8 50.8 50.8z m193.6-525.8c0-12.7-10.6-23.3-23.3-23.3H342.2c-12.7 0-23.3 10.6-23.3 23.3v21.2c0 12.7 10.6 23.3 23.3 23.3h340.6c12.7 0 23.3-10.6 23.3-23.3v-21.2z m0 214.8c0-12.7-10.6-23.3-23.3-23.3H342.2c-12.7 0-23.3 10.6-23.3 23.3v21.2c0 12.7 10.6 23.3 23.3 23.3h340.6c12.7 0 23.3-10.6 23.3-23.3v-21.2z"  horiz-adv-x="1024" />

    
    <glyph glyph-name="gongjulan-diancaidan" unicode="&#58914;" d="M1219.84 59.264H444.032c-39.552 0-71.68-32.128-71.68-71.68s32.128-71.68 71.68-71.68H1219.84c39.552 0 71.68 32.128 71.68 71.68 0 39.68-32.128 71.68-71.68 71.68zM425.344 128.896H1237.76c28.928 0 52.48 23.424 52.48 52.48v104.704h-0.128c-5.504 215.168-159.232 393.344-362.752 436.608 3.584 10.368 5.632 21.504 5.632 33.152 0 55.808-45.312 101.12-101.12 101.12s-101.12-45.312-101.12-101.12c0-11.52 1.92-22.656 5.504-33.024C532.608 679.68 378.88 501.376 373.376 286.208h-0.128v-104.704c-0.256-29.056 23.168-52.608 52.096-52.608z m60.8 272.64c38.784 86.016 105.6 158.848 188.16 204.8 14.336 7.936 32.384 2.816 40.32-11.392 7.936-14.336 2.816-32.384-11.392-40.32-71.552-39.936-129.408-102.912-162.944-177.408-4.992-11.008-15.744-17.536-27.008-17.536-4.096 0-8.192 0.896-12.16 2.56-15.104 6.784-21.76 24.32-14.976 39.296z"  horiz-adv-x="1638" />

    


  </font>
</defs>
</svg>
